<svg xmlns="http://www.w3.org/2000/svg" width="256" height="256" fill="none"><path fill="#333" fill-rule="evenodd" d="M128 240c61.856 0 112-50.144 112-112 0-38.8703-19.801-73.1158-49.867-93.1995L128 128l-64 32V96l124.517-62.2587C171.066 22.5135 150.294 16 128 16 66.1441 16 16 66.1441 16 128c0 38.87 19.8013 73.116 49.867 93.199L128 128l64-32v64L67.4826 222.259C84.9343 233.486 105.706 240 128 240Zm0 16c70.692 0 128-57.308 128-128C256 57.3076 198.692 0 128 0 57.3076 0 0 57.3076 0 128c0 70.692 57.3076 128 128 128Z" clip-rule="evenodd"/></svg>
